{"title":"Flipping.Ships.S01E02.Sailgating.HDTV.XviD-AFG","uid":11877725,"size":346064902,"categoryP":"other","categoryS":"other","magnet":"?xt=urn:btih:e51a08274891fe1a8000bd59b5ae9d6256cb16cd&amp;dn=Flipping.Ships.S01E02.Sailgating.HDTV.XviD-AFG&amp;tr=udp%3A%2F%2Ftracker.openbittorrent.com%3A80&amp;tr=udp%3A%2F%2Fopen.demonii.com%3A1337&amp;tr=udp%3A%2F%2Ftracker.coppersurfer.tk%3A6969&amp;tr=udp%3A%2F%2Fexodus.desync.com%3A6969","seeders":3,"leechers":0,"uploader":"toots2boots","files":2,"time":1430588841,"description":"FLIPPING SHIPS follows McCain and his Boats Have Souls business in a six-part series. In each episode, this quirky band of gear heads perform acts of nautical salvation on boats that have been abandoned for so long, they're beginning to forge with nature ... and not in a good way!\nIn the 90s, Singer Edwin McCain's passion for music took him straight to the 'Top 10' charts, and these days, he's whistling a new tune. In all-new Animal Planet series FLIPPING SHIPS\n\nGeneral\nComplete name                            : G:Torrent uploadFlipping ShipsFlipping.Ships.S01E02.Sailgating.HDTV.XviD-AFGFlipping.Ships.S01E02.Sailgating.HDTV.XviD-AFG.avi\nFormat                                   : AVI\nFormat/Info                              : Audio Video Interleave\nFile size                                : 330 MiB\nDuration                                 : 40mn 45s\nOverall bit rate mode                    : Variable\nOverall bit rate                         : 1 132 Kbps\n\nVideo\nID                                       : 0\nFormat                                   : MPEG-4 Visual\nFormat profile                           : Advanced Simple@L5\nFormat settings, BVOP                    : 2\nFormat settings, QPel                    : No\nFormat settings, GMC                     : No warppoints\nFormat settings, Matrix                  : Default (H.263)\nCodec ID                                 : XVID\nCodec ID/Hint                            : XviD\nDuration                                 : 40mn 45s\nBit rate                                 : 992 Kbps\nWidth                                    : 640 pixels\nHeight                                   : 360 pixels\nDisplay aspect ratio                     : 16:9\nFrame rate                               : 23.976 fps\nColor space                              : YUV\nChroma subsampling                       : 4:2:0\nBit depth                                : 8 bits\nScan type                                : Progressive\nCompression mode                         : Lossy\nBits/(Pixel*Frame)                       : 0.179\nStream size                              : 289 MiB (88%)\nWriting library                          : XviD 64\n\nAudio\nID                                       : 1\nFormat                                   : MPEG Audio\nFormat version                           : Version 1\nFormat profile                           : Layer 3\nMode                                     : Joint stereo\nMode extension                           : MS Stereo\nCodec ID                                 : 55\nCodec ID/Hint                            : MP3\nDuration                                 : 40mn 45s\nBit rate mode                            : Variable\nBit rate                                 : 128 Kbps\nChannel(s)                               : 2 channels\nSampling rate                            : 48.0 KHz\nCompression mode                         : Lossy\nStream size                              : 37.3 MiB (11%)\nAlignment                                : Aligned on interleaves\nInterleave, duration                     : 24 ms (0.58 video frame)\nInterleave, preload duration             : 178 ms\nTitle                                    : Flipping.Ships.S01E02.Sailgating.HDTV.XviD-AFG_360p.audio","torrent":{"xt":"urn:btih:e51a08274891fe1a8000bd59b5ae9d6256cb16cd","amp;dn":"Flipping.Ships.S01E02.Sailgating.HDTV.XviD-AFG","amp;tr":["udp%3A%2F%2Ftracker.openbittorrent.com%3A80","udp%3A%2F%2Fopen.demonii.com%3A1337","udp%3A%2F%2Ftracker.coppersurfer.tk%3A6969","udp%3A%2F%2Fexodus.desync.com%3A6969"],"infoHash":"e51a08274891fe1a8000bd59b5ae9d6256cb16cd","infoHashBuffer":{"type":"Buffer","data":[229,26,8,39,72,145,254,26,128,0,189,89,181,174,157,98,86,203,22,205]},"announce":[],"urlList":[]}}